# xmcd
#
# Track frame offsets: 
#        150
#        17225
#        35384
#        56648
#        75005
#        94213
#        112026
#        130242
#        150307
#        213448
#        228502
#
# Disc length: 3360 seconds
#
# Revision: 1
# Processed by: cddbd v1.5.2PL0 Copyright (c) Steve Scherf et al.
# Submitted via: ExactAudioCopy v1.0b3
#
DISCID=830d1e0b
DTITLE=Leo Sayer - The River Sessions
DYEAR=2004
DGENRE=Pop
TTITLE0=One Man Band
TTITLE1=Only Dreaming
TTITLE2=When I Need You
TTITLE3=How Much Love
TTITLE4=You Make Me Feel Like Dancing
TTITLE5=Have You Ever Been In Love
TTITLE6=More Than I Can Say
TTITLE7=Orchard Road
TTITLE8=Raining In My Heart
TTITLE9=Long Tall Glasses (I Can Dance)
TTITLE10=The Show Must Go On
EXTD=
EXTT0=
EXTT1=
EXTT2=
EXTT3=
EXTT4=
EXTT5=
EXTT6=
EXTT7=
EXTT8=
EXTT9=
EXTT10=
PLAYORDER=
